<?xml version="1.0" encoding="UTF-8"?>
<svg id="Layer_2" data-name="Layer 2" xmlns="http://www.w3.org/2000/svg" viewBox="0 0 166.64 68.75">
  <defs>
    <style>
      .cls-1 {
        fill: #006763;
      }
    </style>
  </defs>
  <g id="_レイヤー_1" data-name="レイヤー 1">
    <g>
      <path class="cls-1" d="M113.31,23.84c-2.05-2.01-6.36-1.04-9.62,2.15-3.27,3.2-4.25,7.41-2.2,9.42,2.05,2.01,6.36,1.04,9.63-2.16,3.26-3.2,4.25-7.41,2.2-9.41ZM107.83,30.04c-2.92,2.85-5.48,4.99-5.72,4.76-.23-.23,1.94-2.74,4.86-5.59,2.92-2.86,5.48-4.99,5.72-4.76.24.23-1.93,2.74-4.86,5.59Z"/>
      <path class="cls-1" d="M1.72,3.07h9.41c.95.16,1.42.48,1.42.97,0,.68-.39,1.02-1.17,1.02H1.29c-.86,0-1.29-.34-1.29-1.02,0-.48.58-.8,1.72-.97M5.29,13.25H1.72c-.78,0-1.17-.33-1.17-.97,0-.52.55-.86,1.66-1.03h3.2c.04-1.08.1-2.1.18-3.07.12-.64.31-.96.55-.96.13,0,.27.32.43.96.08.96.16,1.99.25,3.07h3.63c1.02.17,1.54.5,1.54,1.03,0,.64-.41.97-1.23.97h-3.81c.24,3.97.37,8.79.37,14.44,0,10.44-.17,16.54-.49,18.31,1.11-.53,2.19-1.08,3.26-1.69.61,0,.92.14.92.42,0,.17-.1.43-.31.78-2.17,2.09-5.47,3.46-9.9,4.1-.41,0-.61-.16-.61-.49,0-.16.24-.4.74-.72,1.64-.52,3.28-1.16,4.92-1.92,0-.17-.02-.24-.06-.24-.49-2.45-.74-8.63-.74-18.55.04-5.98.12-10.8.25-14.44M19.38,7.71c-.04.16-.09.32-.13.48-.98,3.81-1.64,8.79-1.96,14.94-.5,9.11-1.25,15.77-2.28,19.99-1.39,6.1-2.95,10.44-4.67,13-.13.32-.45.49-.98.49-.21,0-.31-.17-.31-.49,1.8-3.89,3.24-9.37,4.3-16.44.58-4.29,1.05-9.81,1.42-16.55.78-6.47,1.6-11.31,2.46-14.51.08-.28.16-.59.25-.91h-2.89c-1.31,0-1.97-.34-1.97-1.02,0-.64.66-.97,1.97-.97h3.44c.86-2.37,1.91-4.13,3.14-5.3.49-.28.9-.42,1.23-.42.29,0,.43.08.43.24-1.11,1.12-2.09,2.95-2.95,5.48h2.83c1.72,0,2.58.83,2.58,2.47v27.45c0,11.73-2.31,18.71-6.95,20.96-.49,0-.74-.08-.74-.24,0-.32.18-.58.55-.78,3.24-3.7,4.86-10.42,4.86-20.17l.12-26.56c0-.75-.55-1.14-1.65-1.14h-2.09ZM30.63,4.58c.9-.16,1.8-.24,2.71-.24.98,0,1.95.08,2.89.24.08-1,.51-1.51,1.29-1.51.61,0,.92.5.92,1.51v37.33c0,8.67-1.64,13.01-4.92,13.01s-5.11-4.28-5.11-12.83V4.34c0-.97.37-1.45,1.11-1.45.66,0,1.02.38,1.11,1.15v.54ZM33.64,52.92c1.73,0,2.58-3.91,2.58-11.74V6.44c-.94-.16-1.93-.24-2.95-.24h-2.65v35.71c0,7.34,1.01,11.01,3.01,11.01"/>
      <path class="cls-1" d="M57.43,4.64h-4.18c-.82,0-1.23-.35-1.23-1.03,0-.48.55-.8,1.66-.96h9.16c.94.16,1.41.48,1.41.96,0,.68-.38,1.03-1.17,1.03h-4.8c.04.16.08.32.12.48.16,1.61.31,3.51.43,5.72h3.38c1.02.16,1.54.5,1.54,1.02,0,.64-.41.96-1.23.96h-3.57c.17,3.66.25,7.99.25,13.01,0,11.73-.2,18.39-.61,19.99,1.47-.32,3.03-.74,4.67-1.26.45,0,.68.26.68.78,0,.32-.27.64-.8.97-1.68.96-5,1.68-9.97,2.17-1.19,0-1.78-.43-1.78-1.27.08-.6.9-.9,2.46-.9,1.18,0,2.44-.08,3.75-.25-.05-.16-.06-.32-.06-.48-.53-2.61-.8-9.19-.8-19.75.04-5.14.1-9.47.18-13.01h-3.26c-.78,0-1.17-.32-1.17-.96,0-.52.55-.86,1.66-1.02h2.83c.12-2.21.22-4.12.31-5.72.04-.16.08-.32.12-.48M72.32,3.13c.17-2.09.52-3.13,1.04-3.13.66,0,1.03,1.04,1.11,3.13v20.95c0,8.19-.88,14.55-2.64,19.09-1.72,5.13-4.04,9.31-6.95,12.52-.25.32-.45.48-.62.48-.25,0-.37-.24-.37-.72,2.79-4.05,4.86-8.72,6.21-13.96,1.48-5.79,2.21-11.32,2.21-16.62-1.64.48-4.32.8-8.06.96-1.19,0-1.78-.32-1.78-.96.08-.68.94-1.02,2.58-1.02,2.13-.16,4.55-.46,7.26-.91v-9.45h-5.91c-.78,0-1.16-.22-1.16-.66,0-.64.53-.96,1.6-.96h5.48v-6.74h-5.78c-.78,0-1.17-.32-1.17-.96,0-.52.53-.86,1.6-1.02h5.35ZM82.65,22.46h7.69c.98,0,1.47.3,1.47.91,0,.64-.41.96-1.23.96h-7.93v4.34c0,15.57-.19,24.4-.56,26.49-.16.84-.37,1.26-.62,1.26-.16,0-.32-.42-.49-1.26-.53-3.53-.8-12.36-.8-26.49.08-12.8.27-22.04.55-27.7.16-.65.37-.97.62-.97.16,0,.32.32.49.97.04.68.08,1.4.12,2.16h7.26c.9,0,1.35.34,1.35,1.02,0,.48-.37.73-1.11.73h-7.38c.12,2.05.22,4.37.31,6.98h6.71c.9,0,1.35.32,1.35.96,0,.44-.37.66-1.11.66h-6.89c.08,2.77.14,5.77.19,8.97"/>
      <path class="cls-1" d="M133.9,0c.25,0,.37.24.37.72-.53,1.28-1.47,2.65-2.83,4.09-1.11,1.4-2.27,2.61-3.51,3.61,2.17.76,3.26,2.29,3.26,4.57v39.92c0,1.17-.1,2.31-.31,3.44-.08.64-.33.96-.74.96-.33,0-.59-.42-.8-1.27-.17-1.08-.25-2.04-.25-2.88V12.77c-.16-1.96-1.58-3.11-4.24-3.43-.78,0-1.17-.08-1.17-.24s.3-.38.92-.66c.78-.48,2.11-1.53,4-3.13,1.52-1.16,3.06-2.68,4.62-4.57C133.59.24,133.82,0,133.9,0M164.93,56.06c7.61,4.3-12.79,7.17-10.06,12.63,0,0-3.5-4.92,3.29-8.78,0,0,4.21-1.49-.45-6.51-2.26-2.44-4.66-5.02-6.46-8.43-1.6-2.21-2.67-6.05-3.2-11.5-4.8-.36-7.79-3.43-8.98-9.21-.45-2.05-.67-5.64-.67-10.78-1.72,2.05-3.5,3.5-5.35,4.34-.24.32-.39.49-.43.49-.74,0-1.11-.26-1.11-.78,2.42-1.92,4.59-4.32,6.52-7.17,1.19-1.6,2.44-3.21,3.75-4.81h-4c-.86,0-1.29-.34-1.29-1.02,0-.64.6-.96,1.78-.96h5.29c1.15-1.12,2.4-2.01,3.75-2.65.94,0,1.41.08,1.41.24,0,.32-.37.56-1.1.72-.49.52-.98,1.08-1.48,1.69h14.21c1.03,0,1.54.32,1.54.96,0,.69-.43,1.02-1.29,1.02l-5.1-.24c.57,2.53,1.66,4.76,3.26,6.69.16.16.29.34.37.54,1.27,1.4,2.89,2.69,4.86,3.86.29.12.43.26.43.42-.04.16-.73.24-.73.24-1.56-.6-3.02-1.33-4.37-2.17-.04,4.22-.29,7.59-.74,10.12-.86,4.82-3.63,7.57-8.3,8.25.41,3.85,1.21,6.96,2.39,9.33,0,0,2.43,7.93,12.27,13.5M147.74,12.77c.04-1.28.08-2.17.13-2.65.12-.84.37-1.27.74-1.27.29,0,.47.25.56.73.08,1.01.16,2.07.25,3.2,2.62,0,5.21.16,7.75.48v-.24c-.33-.31-.66-.66-.98-1.02-1.52-1.77-2.46-4-2.83-6.69l-8.98.24c-.37.32-.72.7-1.04,1.14-.86,1.17-2.07,2.77-3.63,4.82.41.17.65.67.74,1.51,2.42-.16,4.86-.24,7.32-.24M140.55,17.82h7.13v-3.19c-2.38,0-4.77.09-7.2.24,0,1.12.03,2.11.07,2.95M147.8,31.07c-.08-1.12-.14-2.43-.18-3.92,0-2.85,0-5.34,0-7.46h-6.95c.16,2.76.39,4.62.67,5.54,1.19,3.9,3.34,5.84,6.46,5.84M157.09,15.17c-2.46-.36-4.98-.54-7.57-.54.08,1,.15,2.07.19,3.19h7.26c.05-.84.09-1.72.12-2.65M156.84,19.69h-7.07c.08,2.29.14,4.77.19,7.46,0,1.32.04,2.63.13,3.92,3.28-.52,5.24-2.37,5.9-5.54.37-.68.66-2.63.86-5.84"/>
      <g>
        <path class="cls-1" d="M137.95,60.27c-.09,0-.14,0-.2,0-.8.02-1.6.03-2.4.04-.09,0-.18,0-.25-.03-.07-.03-.14-.12-.14-.18,0-.07.07-.16.13-.2.07-.04.17-.04.25-.04.89-.02,1.77-.04,2.66-.07.04,0,.07,0,.14-.01,0-.2,0-.39,0-.59,0-.09,0-.18.04-.25.04-.07.12-.14.19-.14.06,0,.16.07.17.13.04.16.06.33.08.49.01.11,0,.23,0,.36.09,0,.16,0,.23,0,.37,0,.74-.02,1.11-.03.2,0,.29.07.3.22,0,.15-.09.23-.29.23-.39.01-.78.02-1.17.03-.04,0-.09,0-.15.01,0,.05,0,.1,0,.15,0,2.49.01,4.97,0,7.46,0,.21-.06.42-.11.62-.01.05-.08.09-.12.14-.04-.04-.12-.08-.13-.13-.05-.29-.12-.57-.12-.86-.02-1.17-.03-2.33-.04-3.5,0-1.05,0-2.09,0-3.14,0-.05,0-.11,0-.21-.07.08-.11.12-.15.17-.52.69-.88,1.46-1.14,2.27-.23.7-.38,1.43-.56,2.15-.19.72-.37,1.45-.75,2.11-.33.58-.78,1.03-1.43,1.24-.06.02-.12.02-.18.03-.01-.02-.03-.03-.04-.05.06-.07.1-.15.17-.21.41-.36.75-.76,1.04-1.22.33-.54.46-1.14.61-1.74.21-.86.36-1.74.69-2.57.32-.81.67-1.6,1.23-2.28.1-.12.21-.23.34-.38Z"/>
        <path class="cls-1" d="M108.45,60.48c-.34.05-.65.09-.97.14-.11.02-.21.04-.32.05-.12,0-.24-.02-.28-.17-.03-.13.05-.27.2-.31.25-.06.5-.1.75-.14.25-.04.5-.06.74-.1.06-.01.13-.06.17-.11.25-.3.49-.6.74-.91.01-.02.03-.04.05-.04.07,0,.13,0,.2-.01,0,.06,0,.14-.03.19-.13.22-.27.43-.4.65-.03.04-.04.1-.07.17.16,0,.31,0,.45,0,.18,0,.37,0,.55.04.39.06.69.26.8.65.12.4.21.81.26,1.22.23,1.65.29,3.32.23,4.98-.01.36-.07.72-.16,1.07-.14.51-.47.74-1,.77-.24.01-.49,0-.73,0-.05,0-.1-.01-.14-.04-.03-.02-.07-.06-.07-.09,0-.03.04-.09.07-.09.11-.03.22-.04.34-.05.2-.03.41-.04.61-.08.19-.04.33-.16.36-.36.07-.45.16-.91.18-1.37.05-1.38.01-2.76-.13-4.13-.05-.5-.12-1-.22-1.49-.08-.4-.22-.5-.64-.51-.27,0-.53,0-.8,0-.12,0-.18.05-.22.17-.31.95-.52,1.91-.69,2.89-.21,1.12-.41,2.25-.65,3.36-.14.62-.37,1.21-.78,1.72-.07.09-.17.23-.29.15-.12-.08,0-.21.04-.3.34-.68.53-1.41.67-2.15.19-1.03.35-2.07.52-3.11.14-.85.32-1.68.61-2.49.02-.04.03-.09.05-.17Z"/>
        <path class="cls-1" d="M117.13,59.99c-.54.02-1.15.05-1.76.07-.09,0-.17,0-.26-.01-.12-.02-.2-.09-.21-.22,0-.13.06-.21.18-.24.15-.03.3-.05.45-.06,1.21-.03,2.42-.05,3.63-.07.19,0,.39.04.58.09.25.07.32.19.29.45-.07.8-.33,1.56-.57,2.31-.5,1.55-1.2,3-2.22,4.28-.63.79-1.35,1.47-2.18,2.04-.06.04-.13.08-.2.1-.03.01-.1,0-.12-.03-.02-.02-.01-.08,0-.12.03-.06.07-.11.12-.15,2.16-1.87,3.51-4.24,4.26-6.97.11-.4.2-.8.29-1.2.06-.25.02-.29-.25-.29-.65,0-1.3,0-2.03,0Z"/>
        <path class="cls-1" d="M144.32,67.89c.16-.14.32-.27.48-.41.99-.93,1.63-2.09,2.11-3.34.04-.1.06-.2.11-.29.04-.07.13-.18.18-.17.13.02.11.15.09.24-.09.33-.16.68-.28,1-.44,1.14-1.03,2.17-1.96,2.99-.19.17-.39.32-.59.46-.08.06-.18.1-.28.13-.21.06-.38-.04-.43-.26-.02-.1-.03-.2-.03-.31.02-2.11.03-4.22.07-6.33.01-.84.08-1.68.12-2.52,0-.08.04-.17.08-.24.02-.04.09-.08.13-.07.04,0,.1.06.11.1.03.09.04.18.04.27,0,1.69,0,3.38,0,5.06,0,1.13-.03,2.26-.04,3.39,0,.09.02.18.03.26.02,0,.04.02.06.03Z"/>
        <path class="cls-1" d="M123.72,63.21c-.21,0-.4,0-.59,0-.19,0-.27-.08-.27-.23,0-.16.08-.23.27-.23.55,0,1.1-.02,1.65-.01.08,0,.19.03.24.09.04.05.05.17.02.24-.02.05-.11.1-.18.11-.21.02-.41.02-.62.02-.05,0-.11,0-.17.01v4.92c.23,0,.49,0,.75,0,.2,0,.31.15.22.31-.04.07-.17.13-.27.13-.37.02-.74,0-1.11,0-.26,0-.52,0-.78,0-.18,0-.27-.08-.27-.23,0-.14.09-.22.27-.22.26,0,.53,0,.78,0-.07-2.15-.1-2.78.06-4.92Z"/>
        <path class="cls-1" d="M131.68,62.76c-.47-.46-1.47-.24-2.22.5-.75.74-.98,1.71-.51,2.18.47.46,1.47.24,2.22-.5.75-.74.98-1.71.51-2.17ZM130.41,64.19c-.67.66-1.26,1.15-1.32,1.1-.05-.05.45-.63,1.12-1.29.67-.66,1.26-1.15,1.32-1.1.06.05-.45.63-1.12,1.29Z"/>
      </g>
    </g>
  </g>
</svg>