<?xml version="1.0" encoding="UTF-8"?>
<svg id="Layer_2" data-name="Layer 2" xmlns="http://www.w3.org/2000/svg" viewBox="0 0 170.08 170.21">
  <defs>
    <style>
      .cls-1 {
        fill: #006763;
      }
    </style>
  </defs>
  <g id="_レイヤー_1" data-name="レイヤー 1">
    <g>
      <path class="cls-1" d="M99.07,110.29l-3.1,59.25c.23-.03.47-.06.7-.09l3.09-59.13-.69-.04Z"/>
      <path class="cls-1" d="M102.71,110.33l-2.43,49.48c0,2.55-.21,4.63-.57,6.37l2.92-55.84-1.38-.07-3.08,58.97c3.27-.51,6.47-1.23,9.61-2.1v-56.81h-5.07Z"/>
      <path class="cls-1" d="M100.22,110.29l-3.09,59.1c.23-.03.46-.05.69-.09l3.08-58.98-.69-.04Z"/>
      <path class="cls-1" d="M104.52,82.48c.02,1.06,2.34,1.06,2.36,0,0,.08-.53-.41-1.18-.41s-1.18-.03-1.18.41Z"/>
      <path class="cls-1" d="M108.03,107.13c-2.57,0-5.4.03-5.4.03v.61h-.18l.02-.57c-.36-.01-.61,0-1.31-.05v.63s-.36,0-.36,0l.03-.63s-.31-.01-.57-.03l-.03.66h-.49s.04-.65.04-.65c0,0-.29-.01-.53-.03l-.03.67h.23s-.05.01-.05.01c0,0,5.65.52,11.7.13l-3.08-.07v-.72Z"/>
      <path class="cls-1" d="M107.92,104.26c-2.57,0-5.4.03-5.4.03v1h-.1l.02-.97c-.36-.02-.61,0-1.31-.08l-.03,1.03h-.33s.04-1.03.04-1.03c0,0-.31-.02-.57-.04l-.04,1.06h-.47s.04-1.04.04-1.04c0,0-.29-.02-.53-.04l-.04,1.07-1.96-.03s4.96.95,15.71.39l-5.03-.24v-1.11Z"/>
      <path class="cls-1" d="M170.08,85.15C170.08,38.12,131.9,0,84.81,0c-111.19,4.09-113.87,162.15-3.18,170.21-2.7-4.13-1-11.32-1-11.32l.3-4.46s-5.74-1.3-7.34-9.66c-1.41-6.28-4.11-17.41-4.57-19.98,0,0-2.88-13.49-6.51-17.12-2.94-2.94-4.96-4.17-9.42-4.75,0,0,.29-1.22,1.22-1.22,0,0-1.18.23.36.58,1.58.35,7.24,2.23,9.91,7.55,2.66,5.32,6.81,21.96,8.1,25.7,1.3,3.74,2.93,10.7,7.24,11.93l2.16.79.02-1.5c-3.76-1.9-7.1-6.54-8.89-12.6-2.64-8.61-6.25-20.12-7.34-22.7-1.31-3.13-5.71-9.33-11.15-10.02,0,0,.4-1.31,4.23,1.18,2.56,1.66,4.77,3.6,6.48,6.35,4.61,8.75,4.47,4.51,5.69,7.07,3.14,6.64,6.23,16.28,9.21,19.91,1.55,4.17,1.27.52,2.39.52,2.19,0,2.73-18.07,2.73-22.44s1.27-6.04,1.27-6.04l-.05-5.81c21.23,2.34,41.71.6,41.71.6.46,2.56-.49,4.85-.49,4.85,3.25,9.51,2.44,45.18,4.51,45.18,1.08,0,7.5-3.19,13.18-7.95,2.71-2.75,5.25-5.68,7.57-8.78,1.18-2.26,1.8-4.61,1.52-6.98-1.44-12.03-8.92-13.18-8.92-13.18-2.48-.62-4.5-.67-6.39,0-1.74.62-3.83,1.47-6.16,1.73-2.33.26-3.25-.63-3.06-.52.77.77,4.27.06,6.17-.58,2.53,0,.99-1.54,3.51-2.07,5.61-.53,5.35,1.38,8.34,1.38s.98-2.16.98-2.16c2.72,1.99,6.3,4.4,7.31,11.48.46,1.91.42,3.94.05,6.02,8.57-13.28,13.57-29.08,13.57-46.05ZM138.71,116.42s10.55-3.34,14.08,7.03c1.23,3.59,1.49,5.58,1.5,5.61-5.7,9.01-13.11,16.84-21.76,23.03-.48-7.48-1.82-26.27-2.37-33.96,0,0,4.85.25,8.56-1.71ZM52.76,102.6c-.17.39.19.61.39.64,5.33.66,8.91,3.08,11.57,9.05,2.74,7.64,5.87,21.92,8.31,32.39,2.45,10.47,5.98,9.84,7.48,10.66-1.12,5.59-1.17,9.31-.71,11.86C36.72,164.63,2.59,128.89,2.59,85.17,1.99,25.07,67.13-15.42,120.63,11.19c-.2,5.37-1.61,10.5-10.3,15.08-6.73,3.54-12.15,1.97-16.45,6.27-7.29,5.75,2.72,27.96-.91,34.06-3.63,6.11-18.69,5.73-18.38-1.46.16-3.55.92-3.55,2.79-4.7,4.13-1.64,13.21-9.5,9.25-19.52-4.8-10.28-37.94-8.59-31.42,16.36,1.66,14.02.78,21.06-6.82,22.73,6.66-12.5,4.72-30.79-11.92-31.53-22.71.02-26.64,26.36-14.55,35.79-16.57,5.92-18.32,19.56-7.29,24.65,10.18,2.18,20.69-.92,22.69-2.74,7.41-3.16,12.43-4.14,15.85-4.07-.22.23-.38.41-.41.49ZM72.46,56.49c-6.35,1.4-7.41-.34-8.77-3.92,0,0-4.83-8.08,5.66-9.73,10.2-.55,12.92,11.48,3.11,13.64ZM38.99,76.12c-4.31,2.87-12.43-1.44-12.13-8.14.37-8.35,3.09-12.57,9.24-13.23,0,0,6.18-.03,7.81,6.38,1.16,4.56.58,11.34-4.92,14.99ZM85.34,99.86c-1.38-.86-1.04-1.78-.58-2.53,0,0,.66-.75,1.93-1.21,1.26-.46,1.78-1.24,2.88-2.27,0,0-.4,1.38.55,1.64,1.55,1.38-1.81.26-3.94,1.27,0,0,.16.4,1.26.55,6.3,1.38,29.39,1.58,38.41.37-5.22.6-5.54-.97-6.1-.92-8.75.69-15.19.22-15.19.22,18.64-2.24,8.47-9.81,8.47-9.81,0,0-.08.01-.22.04,8.53,7.5-6.49,9.69-8.93,9.84,1.99-.28,17.18-2.6,8.52-9.78h0c-1.49.21-5.44.6-9.8-.37-2.19-1.15.57-.81.92-.81,0,0,4.16.82,8.98-.11.46-.46.69-1.5-.46-1.15-1.15.34-6.56.92-9.67.12-.17-.87-.43-.33-.43-.33,0,0-2.16-3.04.78-4.44,0,0,3.92,1.3,9.32-.2,0,0,.69.3.69.04s2.07,2.2,1.04,4.14c-.75,1.41-.13,2.53-.13,2.53,4.45.6,8.87,4.32,10.46,6.85,1.49,2.39,3.31,3.42,3.31,3.42l.17.03c1.98.84,3.62,2.74,1.84,4.03,0,0-29.81,2.07-44.08-1.15ZM156.27,121.7c-7.86-16.15-18.75-8.33-18.75-8.33-2.32,2.3-7.75,2.11-7.75,2.11,0-2.25-.93-6.75-1.41-7.86.61-.6.48-4.85.48-4.85,1.62,0,1.62-1.61.81-1.61,1.62-1.61.16-3.15-1.2-3.88-1.35-.73-2.71-1.34-4.55-4.41-4.89-6.14-9.86-6.04-10.15-6.33-.29-.29-.29-1.54,0-1.91,1.17-2.13-.27-4.97-1.65-4.98-.52,0-8.73.09-8.73.09-2.19,0-2.75,2.47-2.15,4.09.6.61.57,2.54-.65,2.54-4.04-.02-9.73,5.4-10.86,7.04-1.13,1.64-2.99,2.45-4.55,3.3-1.55,1.09-.76,2.65-.38,3.03.37.38.37-.08-.12.81-.5,1.19,1.41,1.42,1.41,1.42,0,0,.22,3.81.21,6.01-1.97,1.03-1.22,17.79-4.03,27.72-4.8,4.25-11.1-38.18-26.75-35.62-.01,0-.02,0-.04,0-5.33-.24-9.95,1.93-15.07,2.91-4.74.91-10.84,1.98-14.14-.19,0,0-5.87-7.1,9.46-11.95,19.5-3.29,23.25-11.13,26.36-16.29,4.97-8.28.48-12.13,4.22-11.97,3.75,1.26,3.01,5.38,2.84,9.09-2.81,10.84,8.03,10.73,19.89,3.35,7.22-4.11,14.09-1.39,23.47-6.05,18.6-6.11,16.07-23.77,2.55-11.46-14.98,10.26-13.92.96-13.92.96-.83-5.88,4.61-6.64,10.78-7.05,6.16-.41,6.58-8.41,1.2-7.96-5.39.45-7.75,5.41-9.33,6.81-4.06,3.67-4.53-9.63,4.03-13.38,10.53-6.22,17.05-5.99,21.49-6.17,6.94-.29,9.91-3.2,11.15-6.03,27.04,23.73,34.79,68.02,16.48,99.89-.13-.98-.34-1.95-.65-2.89Z"/>
    </g>
  </g>
</svg>